<svg xmlns="http://www.w3.org/2000/svg" version="1.1" xmlns:xlink="http://www.w3.org/1999/xlink" xmlns:svgjs="http://svgjs.dev/svgjs" width="1500" height="1682" viewBox="0 0 1500 1682"><g transform="matrix(1,0,0,1,-2.3364369158880436,0)"><svg viewBox="0 0 321 360" data-background-color="#ffffff" preserveAspectRatio="xMidYMid meet" height="1682" width="1500" xmlns="http://www.w3.org/2000/svg" xmlns:xlink="http://www.w3.org/1999/xlink"><g id="tight-bounds" transform="matrix(1,0,0,1,0.5000025000000505,0)"><svg viewBox="0 0 320 360" height="360" width="320"><g><svg></svg></g><g><svg viewBox="0 0 320 360" height="360" width="320"><g><path transform="translate(-19.44751,3.1739) scale(3.53591,3.53591)" d="M67.6 10.7c0.2 0 1.8 0.8 2.7 1.1-0.3 0.1-1-0.2-1.8-0.5 0.2 0 0.6 0.1 1 0.3-0.2-0.2-1.7-0.7-1.9-0.9M52.7 7.6c0.3-0.1 3.8 0.4 5.4 0.5 0.1-0.1-0.2-0.1-0.6-0.2 0.5-0.1 1.5 0.2 2.2 0.3-2.1 0.1-4.4-0.5-6.4-0.3-0.7 0-0.2-0.2-0.6-0.3M49.8 7.6c1.8 0 3.2 0 0.6 0.2-0.3-0.1-0.7-0.1-0.6-0.2M78.1 15.9c0.2 0 1 0.9 1.4 1.2-0.1 0.1-0.9-0.7-1.3-1 0.1 0.1 0 0-0.1-0.2M76.1 14.6c-0.8-0.7-1.1-0.7-1.2-1.1 0.7 0.4 1.2 0.8 1.2 1.1M63.2 8.3c0.1-0.1 0.3 0.1 0.8 0.2-0.6-0.1-0.5 0-0.3 0.2-0.7-0.1-0.9-0.2-0.7-0.4 0.4 0.2 0.5 0.1 0.2 0M34.8 9.5c0-0.1 0.4-0.3 0.7-0.4-0.3 0.2-0.2 0.3 0.3 0.1 0 0.1-0.6 0.3-1 0.5 0.2-0.1 0.4-0.4 0-0.2M65.2 7.3c-0.3 0.1-1.4-0.5-2.5-0.7-0.6-0.2 2.4 0.5 2.5 0.7M6.2 56.7c0.6 2.5 0.2 2.4 0 0M6.3 41.7c0.1-0.4 0.2-1.5 0.3-1.4-0.3 2.4-0.8 3.5-0.9 5.3 0.3-1.6-0.1 0.9-0.2 1.5 0.1 0.8 0.1-0.5 0.3-0.3 0.2 0.3-0.4 4.5-0.2 2.2-0.2 2.1 0 4.4 0.4 5-0.5 3.2 2 10.4 2.5 11.9 0.1 0.1 0-0.5 0.2-0.1 0.2 1.3 1.1 2.2 1.4 3.6 0.3 0.4 1.5 2.6 1.7 3.1 0.4 0.8 0.6 0.7 1 1.5 1.2 2.3 3.1 4.5 4.9 6.6 5.8 6.8 14.7 12.4 24.6 14.4 9.9 2.1 20.3 0.6 28.4-3.3 0.5-0.3 0.4-0.4 1-0.6 2.8-0.9 6.2-3.8 8.1-4.9 0.9-1 3.3-2.7 3.6-3.7 1.7-1.4 3.4-3.7 4.3-5.2 0.5-0.8 0.9-0.8 1.1-1.3-0.1 0 1.6-2.1 2.1-3.3-0.2 0-0.5 0.6-0.5 0 3.6-6.9 5.6-16.2 4.5-22.6 0.2 7.9-1.8 16.7-5.6 22.3-1.7 3.6-5.2 7.5-8.4 10.3-0.5 0.5-1 1.1-1.6 1.5-1.9 1.6-4 2.9-6.2 4.1-5.2 2.9-11 5.4-17.8 5.5 11.7-1 22.2-6.9 28-14.1-4.4 4.3-6.3 6-11.2 8.5-0.4 0.7-3.7 2.1-5.9 2.7 1.3-0.6 4-1.6 4.9-2.4-7.3 3.5-15.4 5.5-23 4.4 2.9 0 7 0.1 10.9-0.6 0.6-0.2 0.9-0.4 1.6-0.5 7.6-1.7 14.9-5.4 20.1-10.6-3 2.7-7.5 5.9-10.4 6.9 2.7-1.5 7.6-4.4 9.2-6.6-3.2 3.2-9.2 6.4-13 7.8-0.6 0.1 0.4-0.4-0.6 0-1.2 0.3-0.7 0.3-1 0.5-4.6 1.3-9.9 2.4-14.3 2-0.8-0.1-1.1-0.3-1.8-0.3-0.8-0.1-1.5-0.1-2.4-0.1-3.5-0.4-7.3-1.8-10.1-3-1.5-0.7-3-1.2-4.5-2.1-1.2-0.7-2.2-1.5-3.2-2.3-3.8-2.8-7-5.6-10-9.6-5.4-7.5-8.2-16.9-7.8-26.2 0.4-9.3 4.1-18.4 10-25.1-0.3 0.3 0.4-0.7 1-1.3 0 0.2-0.1 0.5 0.6-0.2 0.6-0.7-0.2-0.2 0.1-0.6 6.2-6.8 17-12.3 28.1-12.5 0.4-0.3 1.1-0.7 1.9-0.5 0 0.1-0.5 0.1-0.5 0.1 1.1-0.1 2.1-0.1 2.6 0.1 0.1-0.1-0.4-0.2 0-0.2 0.7 0.2 0.9 0 1.3 0.2-0.3 0-0.6 0-0.8 0.1 2.5 0 4.1 0.6 6.6 0.8-1.3-0.3-1.6-0.3-2.6-0.6 1.1 0.2 1.6 0.4 2.1 0.3-0.2 0-0.1-0.3 0.1-0.2 2 0.5 2.2 0.7 4.3 1.4 0.2-0.2-0.9-0.3-1.2-0.6 2 0.7 3.8 1.2 5 2-0.4-0.3-1.6-0.7-2.5-1.1-0.1 0.1 0.3 0.2 0.4 0.4-1-0.5-2.4-1-3.8-1.2 1.2 0.3 2 0.7 2.5 0.9-1.1-0.2-2.5-0.9-4.1-1.2 2.6 0.8 7.5 2.6 10.5 4.2-1.1-0.7-2.4-1.2-3.1-1.6 0.6 0.1 1.3 0.5 1.3 0.3 0.7 0.3 1.6 1 2.1 1.1-0.9-0.6-2.7-1.5-3.3-1.8 7.5 3.4 14.2 9.1 18.5 16.4 0.4 0.7 1 2.3 1.5 2.5-0.1-0.5-0.5-0.8-0.9-1.6 0.2 0 0.2-0.3 0-0.6-0.4-0.5 0 0.4-0.4-0.1-1.8-3.3-4-6.2-7.4-9.4 1.9 1.8 0.5 0.5 0.1-0.1 2.6 2.3 5.6 6.2 6.9 8.2-0.2-0.3-0.3-0.5-0.2-0.5 2.4 4.1 3.9 7.8 5.4 13.1 0.1 0.1 0-0.4 0.2-0.1 1 4.2 1.3 7.7 1.2 10.9 0.8-5.4-1-13.8-4.2-20.4-0.4-0.8-0.4-0.2-0.8-1.1 0-0.3-0.3-0.9-0.5-1.3-4-6.6-8.9-11.3-14.7-15 0.4 0.2 1.2 0.8 1.2 0.7-10.8-7.1-23.3-8.1-33.6-5.9-0.7 0.3-1 0.6-1.8 1 1.5-0.5 2.4-0.6 3.8-0.9 0.3-0.3-1.3 0.1-0.6-0.2 0.1 0.1 1.4-0.2 1.7-0.1 0 0.1-0.4 0.2-0.5 0.3 3.3-0.7 6.7-0.8 9.6-0.6-1.7 0.1-4.8-0.2-5.8 0.3 1-0.1 2.4-0.2 3.3-0.1-1.2 0-3.4 0.1-4.4 0.2-0.1-0.1 1.6-0.3 0.5-0.3-0.5 0.1-1.3 0.1-1.6 0.4-8.6 0.8-17 5.3-22.9 10.6-1.2 1-2.6 2.1-3.5 3.2-2.2 2.5-3.6 5-5.2 7.2 1-2.1 3.2-5.3 5.8-8 2.6-2.7 5.4-5 6.9-6.2 0 0.4 2.4-1.5 3.3-2.1-0.6 0.5 0.4-0.2 0.6-0.1 3.2-1.9 5.8-2.6 8.7-3.7-0.7 0.2-1.3 0.4-1.4 0.3 0.7-0.2 1.1-0.4 1-0.5-2.8 0.8-7.2 2.7-10.7 4.8 6.3-4.3 14.3-6.9 22.2-7 7.9-0.2 15.6 1.8 21.7 5 4.1 1.8 8 5.1 11.1 8.3 0.9 0.8 0.2-0.2 1.5 1.2-0.4-0.2-0.7-0.4-0.2 0.2 0.8 0.9-0.2-0.7 1.1 0.9-0.1 0-0.5-0.5-0.5-0.3 3.5 3.1 6.2 8.7 7.8 12.4-0.4-1.5-1.4-3.6-2.2-5.1 2.4 4.4 3.2 7 4.2 10.9 0.4 0.3-0.2-1.4 0.2-0.6 0.1 0.6 0.2 2.5 0.6 2.8-0.3-1.9-0.8-4.2-1.2-4.6 0.3 0.2-0.5-2.3-1-2.9-0.2-1.6-1.6-4.4-2.8-6.5-4.3-8.4-12-15.3-20.6-19.1 0-0.2-0.5-0.4-0.7-0.6-8.5-3.6-18.7-4.6-28.5-2.3-9.9 2.4-19.2 8.1-25.8 16.3 0.3-1 2.8-2.9 2.9-3.7-2.9 3.1-6 7.2-8.1 11.6-2.2 4.4-3.4 8.9-3.9 12.2" fill="#ffffff" fill-rule="nonzero" stroke="none" stroke-width="1" stroke-linecap="butt" stroke-linejoin="miter" stroke-miterlimit="10" stroke-dasharray="" stroke-dashoffset="0" font-family="none" font-weight="none" font-size="none" text-anchor="none" style="mix-blend-mode: normal" data-fill-palette-color="tertiary"></path></g><g transform="matrix(1,0,0,1,48,142.25144197926744)"><svg viewBox="0 0 224 75.4971160414651" height="75.4971160414651" width="224"><g><svg viewBox="0 0 224 75.4971160414651" height="75.4971160414651" width="224"><g transform="matrix(1,0,0,1,0,52.586266006910854)"><svg viewBox="0 0 224 22.91085003455425" height="22.91085003455425" width="224"><g id="textblocktransform"><svg viewBox="0 0 224 22.91085003455425" height="22.91085003455425" width="224" id="textblock"><g><svg viewBox="0 0 224 22.91085003455425" height="22.91085003455425" width="224"><g transform="matrix(1,0,0,1,0,0)"><svg width="224" viewBox="0.2 -35.64 353.25 36.13" height="22.91085003455425" data-palette-color="#ffffff"><path d="M0.2 0L0.2 0Q0.34-0.61 0.42-1.5 0.49-2.39 0.49-3.34L0.49-3.34Q0.49-4.22 0.43-4.99 0.37-5.76 0.24-6.35L0.24-6.35Q1.49-6.4 2.37-6.8 3.25-7.2 3.81-7.69L3.81-7.69Q4.39-8.59 5-9.72 5.62-10.84 6.12-12.02 6.62-13.21 6.93-14.39 7.25-15.58 7.25-16.6L7.25-16.6Q7.25-17.02 7.13-17.43 7.01-17.85 6.71-17.94L6.71-17.94Q7.45-18.14 8.18-19.02 8.91-19.9 9.59-21.19 10.28-22.49 10.86-24.07 11.45-25.66 11.89-27.28 12.33-28.91 12.57-30.44 12.82-31.98 12.82-33.18L12.82-33.18Q12.82-33.59 12.77-33.98 12.72-34.38 12.72-34.64L12.72-34.64Q12.72-34.77 12.73-34.86 12.74-34.96 12.74-35.16L12.74-35.16Q13.31-34.94 14.15-34.78 14.99-34.62 16.04-34.51 17.09-34.4 18.29-34.35 19.48-34.3 20.78-34.3L20.78-34.3Q21.9-34.3 23.07-34.35 24.24-34.4 25.34-34.51 26.44-34.62 27.39-34.78 28.34-34.94 28.98-35.16L28.98-35.16 28.98-35.06 28.98-34.84Q28.98-34.57 28.92-34.17 28.86-33.76 28.86-33.28L28.86-33.28Q28.86-32.15 29.06-30.64 29.27-29.13 29.64-27.5 30-25.88 30.53-24.28 31.05-22.68 31.69-21.35 32.32-20.02 33.06-19.1 33.79-18.19 34.59-17.94L34.59-17.94Q34.25-17.82 34.12-17.47 33.98-17.11 33.98-16.6L33.98-16.6Q33.98-15.58 34.29-14.39 34.59-13.21 35.1-12.02 35.6-10.84 36.19-9.74 36.79-8.64 37.38-7.76L37.38-7.76Q37.74-7.54 38.26-7.3 38.77-7.06 39.33-6.84 39.89-6.62 40.45-6.48 41.02-6.35 41.5-6.35L41.5-6.35Q41.38-5.76 41.32-4.99 41.26-4.22 41.26-3.34L41.26-3.34Q41.26-2.39 41.33-1.5 41.41-0.61 41.55 0L41.55 0Q40.67-0.1 39.53-0.21 38.38-0.32 37.06-0.4 35.74-0.49 34.33-0.55 32.91-0.61 31.49-0.61L31.49-0.61Q28.91-0.61 26.57-0.45 24.24-0.29 22.63 0L22.63 0Q22.71-0.42 22.77-1.31 22.83-2.2 22.83-3.3L22.83-3.3Q22.83-3.76 22.8-4.24 22.78-4.71 22.75-5.13 22.73-5.54 22.69-5.87 22.66-6.2 22.63-6.35L22.63-6.35Q23.07-6.35 23.56-6.38 24.05-6.42 24.52-6.52 25-6.62 25.44-6.79 25.88-6.96 26.22-7.25L26.22-7.25Q26.17-8.23 25.9-8.92 25.63-9.62 24.89-10.08 24.15-10.55 22.81-10.77 21.48-10.99 19.34-10.99L19.34-10.99Q17.41-10.99 16.13-10.84 14.84-10.69 14.05-10.29 13.26-9.89 12.88-9.17 12.5-8.45 12.4-7.28L12.4-7.28Q12.77-6.98 13.28-6.81 13.79-6.64 14.34-6.53 14.89-6.42 15.44-6.38 15.99-6.35 16.43-6.35L16.43-6.35Q16.38-6.2 16.35-5.88 16.31-5.57 16.28-5.14 16.26-4.71 16.25-4.22 16.24-3.74 16.24-3.3L16.24-3.3Q16.24-2.2 16.3-1.31 16.36-0.42 16.43 0L16.43 0Q14.58-0.34 12.67-0.48 10.77-0.61 8.79-0.61L8.79-0.61Q6.49-0.61 4.33-0.48 2.17-0.34 0.2 0ZM15.82-18.14L15.82-18.14Q15.82-17.43 15.98-16.97 16.14-16.5 16.54-16.24 16.94-15.97 17.64-15.86 18.33-15.75 19.41-15.75L19.41-15.75Q20.48-15.75 21.18-15.86 21.88-15.97 22.28-16.24 22.68-16.5 22.84-16.97 23-17.43 23-18.14L23-18.14Q23-18.99 22.56-20.24 22.12-21.48 21.53-22.85 20.95-24.22 20.34-25.59 19.73-26.95 19.41-28.05L19.41-28.05Q19.04-26.95 18.43-25.59 17.82-24.22 17.25-22.85 16.67-21.48 16.25-20.24 15.82-18.99 15.82-18.14ZM44.11 0L44.11 0Q44.26-0.61 44.37-1.48 44.48-2.34 44.48-3.27L44.48-3.27Q44.48-4.13 44.36-4.94 44.24-5.76 44.11-6.35L44.11-6.35Q45.21-6.35 46.04-6.52 46.87-6.69 47.43-7.09 48-7.5 48.28-8.19 48.56-8.89 48.56-9.94L48.56-9.94Q48.56-11.99 48.45-13.45 48.34-14.92 48.13-15.87 47.92-16.82 47.6-17.32 47.29-17.82 46.87-17.94L46.87-17.94Q47.31-18.09 47.63-18.41 47.95-18.73 48.15-19.49 48.36-20.26 48.46-21.62 48.56-22.97 48.56-25.22L48.56-25.22Q48.56-26.27 48.28-26.97 48-27.66 47.43-28.06 46.87-28.47 46.04-28.64 45.21-28.81 44.11-28.81L44.11-28.81Q44.24-29.39 44.36-30.21 44.48-31.03 44.48-31.88L44.48-31.88Q44.48-32.81 44.37-33.68 44.26-34.55 44.11-35.16L44.11-35.16Q44.6-35.03 45.8-34.92 46.99-34.81 48.58-34.72 50.17-34.62 51.98-34.55 53.78-34.47 55.5-34.41 57.22-34.35 58.68-34.33 60.13-34.3 61.01-34.3L61.01-34.3Q61.89-34.3 63.25-34.33 64.62-34.35 66.2-34.41 67.77-34.47 69.42-34.55 71.07-34.62 72.52-34.72 73.97-34.81 75.08-34.92 76.19-35.03 76.68-35.16L76.68-35.16Q76.49-34.13 76.28-32.56 76.07-30.98 76.07-29.22L76.07-29.22Q76.07-28.2 76.14-27.21 76.22-26.22 76.3-25.4 76.39-24.58 76.5-23.97 76.61-23.36 76.68-23.07L76.68-23.07Q76.32-23.22 75.77-23.33 75.22-23.44 74.58-23.52 73.95-23.61 73.26-23.65 72.58-23.68 71.95-23.68L71.95-23.68Q70.82-23.68 69.7-23.55 68.58-23.41 67.55-23.07L67.55-23.07Q67.72-23.58 67.83-24.32 67.94-25.05 67.94-25.81L67.94-25.81Q67.94-27.05 67.51-27.8 67.09-28.54 66.43-28.93 65.77-29.32 64.99-29.43 64.21-29.54 63.5-29.54L63.5-29.54Q62.94-29.54 62.31-29.5 61.69-29.47 61.04-29.33 60.4-29.2 59.76-28.97 59.13-28.74 58.59-28.34L58.59-28.34Q58.49-27.78 58.42-27.05 58.35-26.32 58.35-25.22L58.35-25.22Q58.35-23.58 58.41-22.67 58.47-21.75 58.57-21.26L58.57-21.26Q59.23-20.97 60.1-20.85 60.98-20.73 61.91-20.73L61.91-20.73Q63.3-20.73 64.55-20.95 65.79-21.17 66.35-21.46L66.35-21.46Q66.16-20.92 66.07-19.97 65.99-19.02 65.99-17.97L65.99-17.97Q65.99-17.38 66.01-16.81 66.04-16.24 66.1-15.76 66.16-15.28 66.22-14.93 66.28-14.58 66.35-14.4L66.35-14.4Q66.14-14.53 65.65-14.66 65.16-14.79 64.51-14.92 63.86-15.04 63.1-15.12 62.33-15.21 61.52-15.21L61.52-15.21Q60.69-15.21 59.93-15.11 59.18-15.01 58.57-14.75L58.57-14.75Q58.52-14.45 58.48-14.07 58.44-13.7 58.41-13.12 58.37-12.55 58.36-11.77 58.35-10.99 58.35-9.94L58.35-9.94Q58.35-8.62 58.44-7.8 58.54-6.98 58.66-6.4L58.66-6.4Q59.25-6.08 59.91-5.87 60.57-5.66 61.24-5.55 61.91-5.44 62.55-5.41 63.18-5.37 63.74-5.37L63.74-5.37Q64.45-5.37 65.2-5.55 65.94-5.74 66.55-6.24 67.16-6.74 67.55-7.63 67.94-8.52 67.94-9.91L67.94-9.91Q67.94-10.79 67.83-11.65 67.72-12.5 67.55-13.06L67.55-13.06Q68.58-12.72 69.7-12.59 70.82-12.45 71.95-12.45L71.95-12.45Q72.58-12.45 73.26-12.49 73.95-12.52 74.58-12.61 75.22-12.7 75.77-12.81 76.32-12.92 76.68-13.06L76.68-13.06Q76.61-12.74 76.5-12.08 76.39-11.43 76.3-10.53 76.22-9.64 76.14-8.58 76.07-7.52 76.07-6.42L76.07-6.42Q76.07-5.47 76.13-4.55 76.19-3.64 76.28-2.81 76.36-1.98 76.47-1.26 76.58-0.54 76.68 0L76.68 0Q76.19-0.1 75.08-0.18 73.97-0.27 72.52-0.33 71.07-0.39 69.42-0.45 67.77-0.51 66.2-0.55 64.62-0.59 63.25-0.6 61.89-0.61 61.01-0.61L61.01-0.61Q60.13-0.61 58.68-0.6 57.22-0.59 55.5-0.55 53.78-0.51 51.98-0.45 50.17-0.39 48.58-0.33 46.99-0.27 45.8-0.18 44.6-0.1 44.11 0ZM81.54 0L81.54 0Q81.68-0.61 81.79-1.48 81.9-2.34 81.9-3.27L81.9-3.27Q81.9-4.13 81.78-4.94 81.66-5.76 81.54-6.35L81.54-6.35Q82.64-6.35 83.47-6.52 84.3-6.69 84.86-7.09 85.42-7.5 85.7-8.19 85.98-8.89 85.98-9.94L85.98-9.94Q85.98-11.99 85.87-13.45 85.76-14.92 85.55-15.87 85.35-16.82 85.03-17.32 84.71-17.82 84.3-17.94L84.3-17.94Q84.74-18.09 85.05-18.41 85.37-18.73 85.58-19.49 85.79-20.26 85.88-21.62 85.98-22.97 85.98-25.22L85.98-25.22Q85.98-26.27 85.7-26.97 85.42-27.66 84.86-28.06 84.3-28.47 83.47-28.64 82.64-28.81 81.54-28.81L81.54-28.81Q81.66-29.39 81.78-30.21 81.9-31.03 81.9-31.88L81.9-31.88Q81.9-32.81 81.79-33.68 81.68-34.55 81.54-35.16L81.54-35.16Q81.86-35.03 82.78-34.91 83.71-34.79 84.97-34.7 86.23-34.62 87.69-34.55 89.16-34.47 90.57-34.41 91.99-34.35 93.22-34.33 94.45-34.3 95.26-34.3L95.26-34.3Q97.58-34.3 99.96-34.34 102.34-34.38 104.4-34.47 106.46-34.57 108-34.74 109.54-34.91 110.18-35.16L110.18-35.16Q110.2-34.67 110.53-34.12 110.86-33.57 111.38-33.02 111.91-32.47 112.57-31.96 113.23-31.45 113.9-31.05 114.57-30.66 115.2-30.42 115.84-30.18 116.33-30.15L116.33-30.15Q116.16-29.81 116.02-29.15 115.89-28.49 115.79-27.69 115.69-26.88 115.64-25.99 115.6-25.1 115.6-24.29L115.6-24.29Q115.6-23.36 115.63-22.47 115.67-21.58 115.74-20.8 115.82-20.02 115.96-19.37 116.11-18.73 116.33-18.31L116.33-18.31Q115.47-18.16 114.55-17.85 113.62-17.53 112.71-17.08 111.81-16.63 111.01-16.06 110.2-15.5 109.61-14.87L109.61-14.87Q109.98-14.36 110.48-13.92 110.98-13.48 111.52-13.17 112.06-12.87 112.62-12.7 113.18-12.52 113.67-12.52L113.67-12.52Q113.67-11.06 114.12-9.91 114.57-8.76 115.4-7.97 116.23-7.18 117.43-6.76 118.62-6.35 120.14-6.35L120.14-6.35Q119.92-5.76 119.84-4.94 119.77-4.13 119.77-3.27L119.77-3.27Q119.77-2.34 119.87-1.48 119.97-0.61 120.19 0L120.19 0Q119.94-0.1 119.23-0.21 118.53-0.32 117.61-0.4 116.69-0.49 115.72-0.55 114.74-0.61 113.96-0.61L113.96-0.61Q113.03-0.61 111.91-0.59 110.79-0.56 109.71-0.5 108.64-0.44 107.75-0.32 106.86-0.2 106.39 0L106.39 0Q106.44-0.49 106.46-0.96 106.49-1.44 106.49-1.9L106.49-1.9Q106.49-2.91 106.34-3.82 106.2-4.74 105.85-5.51 105.51-6.27 104.98-6.85 104.44-7.42 103.66-7.74L103.66-7.74Q103.88-8.15 104.05-8.86 104.22-9.57 104.22-10.84L104.22-10.84Q104.22-11.52 104-12.13 103.78-12.74 103.23-13.18 102.68-13.62 101.78-13.88 100.87-14.14 99.51-14.14L99.51-14.14Q98.92-14.14 98.09-14.09 97.26-14.04 96.33-13.92L96.33-13.92Q96.06-13.26 95.92-12.34 95.77-11.43 95.77-9.94L95.77-9.94Q95.77-8.89 96-8.19 96.24-7.5 96.77-7.09 97.31-6.69 98.15-6.52 98.99-6.35 100.21-6.35L100.21-6.35Q100.09-5.76 99.97-4.94 99.85-4.13 99.85-3.27L99.85-3.27Q99.85-2.34 99.96-1.48 100.07-0.61 100.21 0L100.21 0Q99.51-0.15 98.43-0.26 97.36-0.37 96.09-0.45 94.82-0.54 93.48-0.57 92.13-0.61 90.89-0.61L90.89-0.61Q89.64-0.61 88.29-0.57 86.93-0.54 85.66-0.45 84.39-0.37 83.31-0.26 82.22-0.15 81.54 0ZM95.82-19.48L95.82-19.48Q96.85-19.19 97.98-19.06 99.12-18.92 100.46-18.92L100.46-18.92Q101.78-18.92 102.81-19.32 103.85-19.73 104.56-20.43 105.27-21.14 105.63-22.11 106-23.07 106-24.17L106-24.17Q106-25.2 105.72-26.17 105.44-27.15 104.82-27.89 104.19-28.64 103.18-29.09 102.17-29.54 100.7-29.54L100.7-29.54Q99.43-29.54 98.13-29.37 96.82-29.2 95.8-28.78L95.8-28.78Q95.67-28 95.62-27.06 95.58-26.12 95.58-25.1L95.58-25.1Q95.58-23.58 95.65-22.11 95.72-20.63 95.82-19.48ZM123.06-6.54L123.06-6.54Q123.53-7.18 123.92-9.14 124.31-11.11 124.31-14.5L124.31-14.5Q124.31-16.04 123.89-16.86 123.48-17.68 122.7-17.94L122.7-17.94Q123.14-18.07 123.45-18.51 123.77-18.95 123.99-19.58 124.21-20.21 124.31-20.98 124.41-21.75 124.41-22.56L124.41-22.56Q124.41-24.66 124.05-26.28 123.7-27.91 123.06-28.61L123.06-28.61 123.26-28.61Q124.09-28.61 125.1-28.98 126.12-29.35 127.17-29.94 128.22-30.54 129.22-31.29 130.22-32.03 131.01-32.81 131.8-33.59 132.3-34.34 132.81-35.08 132.85-35.64L132.85-35.64Q133.24-35.42 134.06-35.19 134.88-34.96 136.02-34.75 137.15-34.55 138.55-34.42 139.96-34.3 141.5-34.3L141.5-34.3Q143.03-34.3 144.44-34.42 145.84-34.55 146.98-34.75 148.11-34.96 148.93-35.19 149.75-35.42 150.14-35.64L150.14-35.64Q150.19-35.08 150.69-34.34 151.19-33.59 151.98-32.81 152.78-32.03 153.78-31.29 154.78-30.54 155.83-29.94 156.88-29.35 157.89-28.98 158.9-28.61 159.73-28.61L159.73-28.61 159.93-28.61Q159.29-27.91 158.94-26.28 158.59-24.66 158.59-22.56L158.59-22.56Q158.59-21.75 158.68-20.98 158.78-20.21 159-19.58 159.22-18.95 159.54-18.51 159.86-18.07 160.3-17.94L160.3-17.94Q159.51-17.68 159.1-16.86 158.68-16.04 158.68-14.5L158.68-14.5Q158.68-11.11 159.07-9.14 159.47-7.18 159.93-6.54L159.93-6.54Q158.61-6.4 157.05-5.71 155.49-5.03 154.08-4.03 152.68-3.03 151.63-1.84 150.58-0.66 150.29 0.49L150.29 0.49Q149.89 0.27 149.05 0.07 148.21-0.12 147.05-0.28 145.89-0.44 144.46-0.52 143.03-0.61 141.5-0.61L141.5-0.61Q139.96-0.61 138.53-0.52 137.1-0.44 135.94-0.28 134.78-0.12 133.94 0.07 133.1 0.27 132.71 0.49L132.71 0.49Q132.41-0.66 131.36-1.84 130.31-3.03 128.91-4.03 127.51-5.03 125.94-5.71 124.38-6.4 123.06-6.54ZM141.5-5.37L141.5-5.37Q142.86-5.37 144.05-5.85 145.23-6.32 146.1-7.63 146.97-8.94 147.47-11.22 147.97-13.5 147.97-17.14L147.97-17.14Q147.97-20 147.71-22.02 147.45-24.05 147-25.43 146.55-26.81 145.93-27.62 145.31-28.44 144.58-28.87 143.86-29.3 143.08-29.42 142.3-29.54 141.5-29.54L141.5-29.54Q140.69-29.54 139.91-29.42 139.13-29.3 138.41-28.87 137.69-28.44 137.07-27.62 136.44-26.81 135.99-25.43 135.54-24.05 135.28-22.02 135.03-20 135.03-17.14L135.03-17.14Q135.03-13.5 135.53-11.22 136.03-8.94 136.89-7.63 137.76-6.32 138.95-5.85 140.13-5.37 141.5-5.37ZM176.33 0L176.33 0Q176.36-0.15 176.36-0.24 176.36-0.34 176.36-0.54L176.36-0.54Q176.36-1.25 176.24-2.32 176.11-3.39 175.86-4.68 175.6-5.96 175.23-7.39 174.87-8.81 174.4-10.22 173.94-11.62 173.35-12.92 172.77-14.21 172.1-15.26 171.43-16.31 170.64-17.02 169.86-17.72 169.01-17.94L169.01-17.94Q169.35-18.07 169.48-18.42 169.62-18.77 169.62-19.29L169.62-19.29Q169.62-20.24 169.46-21.3 169.3-22.36 168.91-23.43 168.52-24.49 167.86-25.48 167.2-26.46 166.23-27.32L166.23-27.32Q165.93-27.56 165.46-27.83 164.98-28.1 164.43-28.32 163.88-28.54 163.32-28.67 162.76-28.81 162.27-28.81L162.27-28.81Q162.39-29.39 162.45-30.16 162.51-30.93 162.51-31.81L162.51-31.81Q162.51-32.76 162.45-33.65 162.39-34.55 162.27-35.16L162.27-35.16Q163.17-35.01 164.38-34.86 165.59-34.72 166.96-34.58 168.32-34.45 169.8-34.38 171.28-34.3 172.77-34.3L172.77-34.3Q174.31-34.3 175.81-34.35 177.31-34.4 178.68-34.51 180.04-34.62 181.23-34.78 182.41-34.94 183.34-35.16L183.34-35.16Q183.27-34.74 183.21-33.85 183.14-32.96 183.14-31.86L183.14-31.86Q183.14-31.42 183.16-30.93 183.17-30.44 183.19-30.02 183.22-29.59 183.25-29.27 183.29-28.96 183.34-28.81L183.34-28.81Q182.34-28.81 181.42-28.76 180.51-28.71 179.8-28.52 179.09-28.32 178.66-27.94 178.24-27.56 178.24-26.88L178.24-26.88Q178.24-26.05 178.63-24.77 179.02-23.49 179.62-21.91 180.21-20.34 180.96-18.57 181.7-16.8 182.4-14.99 183.1-13.18 183.68-11.44 184.27-9.69 184.56-8.18L184.56-8.18Q184.9-9.52 185.52-11.19 186.15-12.87 186.88-14.66 187.61-16.46 188.36-18.29 189.1-20.12 189.72-21.75 190.35-23.39 190.74-24.76 191.13-26.12 191.13-27L191.13-27Q191.13-27.69 190.76-28.05 190.4-28.42 189.82-28.59 189.25-28.76 188.53-28.78 187.81-28.81 187.1-28.81L187.1-28.81Q187.12-28.96 187.16-29.28 187.2-29.61 187.22-30.03 187.25-30.44 187.27-30.92 187.29-31.4 187.29-31.86L187.29-31.86Q187.29-32.96 187.23-33.85 187.17-34.74 187.1-35.16L187.1-35.16Q189.15-34.69 191.24-34.5 193.32-34.3 195.47-34.3L195.47-34.3Q197.77-34.3 199.9-34.5 202.04-34.69 204.02-35.16L204.02-35.16Q203.87-34.55 203.82-33.65 203.77-32.76 203.77-31.81L203.77-31.81Q203.77-30.93 203.84-30.16 203.9-29.39 204.02-28.81L204.02-28.81Q203.68-28.81 203.18-28.72 202.68-28.64 202.15-28.45 201.63-28.27 201.1-27.99 200.58-27.71 200.16-27.29L200.16-27.29Q199.4-26.59 198.79-25.6 198.18-24.61 197.74-23.52 197.3-22.44 197.07-21.34 196.84-20.24 196.84-19.29L196.84-19.29Q196.84-18.87 196.96-18.46 197.08-18.04 197.38-17.94L197.38-17.94Q196.43-17.7 195.51-16.66 194.59-15.63 193.79-14.11 192.98-12.6 192.31-10.75 191.64-8.91 191.15-7.09 190.66-5.27 190.4-3.61 190.13-1.95 190.13-0.78L190.13-0.78 190.13 0Q189.17-0.32 187.34-0.46 185.51-0.61 183.32-0.61L183.32-0.61Q182.39-0.61 181.39-0.57 180.39-0.54 179.43-0.46 178.48-0.39 177.68-0.28 176.87-0.17 176.33 0ZM206.6 0L206.6 0Q206.75-0.61 206.86-1.48 206.97-2.34 206.97-3.27L206.97-3.27Q206.97-4.13 206.85-4.94 206.73-5.76 206.6-6.35L206.6-6.35Q207.7-6.35 208.64-6.52 209.58-6.69 210.28-7.09 210.97-7.5 211.38-8.19 211.78-8.89 211.78-9.94L211.78-9.94Q211.78-11.99 211.67-13.45 211.56-14.92 211.35-15.87 211.14-16.82 210.83-17.32 210.51-17.82 210.09-17.94L210.09-17.94Q210.53-18.09 210.85-18.47 211.17-18.85 211.38-19.7 211.58-20.56 211.68-21.98 211.78-23.41 211.78-25.66L211.78-25.66Q211.78-26.64 211.33-27.25 210.88-27.86 210.16-28.21 209.44-28.56 208.56-28.69 207.68-28.81 206.82-28.81L206.82-28.81 206.36-28.81Q206.48-29.39 206.6-30.16 206.73-30.93 206.73-31.79L206.73-31.79Q206.73-32.69 206.62-33.62 206.51-34.55 206.36-35.16L206.36-35.16Q206.82-34.99 207.98-34.83 209.14-34.67 210.61-34.56 212.07-34.45 213.68-34.38 215.3-34.3 216.69-34.3L216.69-34.3Q218.1-34.3 219.59-34.38 221.08-34.45 222.4-34.57 223.72-34.69 224.74-34.84 225.77-34.99 226.26-35.16L226.26-35.16Q226.11-34.55 226-33.62 225.89-32.69 225.89-31.79L225.89-31.79Q225.89-30.93 226.01-30.16 226.13-29.39 226.26-28.81L226.26-28.81 225.74-28.81Q224.84-28.81 224.08-28.69 223.33-28.56 222.77-28.21 222.2-27.86 221.89-27.25 221.57-26.64 221.57-25.66L221.57-25.66Q221.57-23.41 221.67-21.98 221.76-20.56 221.97-19.7 222.18-18.85 222.5-18.47 222.81-18.09 223.25-17.94L223.25-17.94Q222.84-17.82 222.52-17.32 222.2-16.82 222-15.87 221.79-14.92 221.68-13.45 221.57-11.99 221.57-9.94L221.57-9.94Q221.57-8.89 221.92-8.19 222.28-7.5 222.94-7.09 223.6-6.69 224.56-6.52 225.52-6.35 226.75-6.35L226.75-6.35Q226.62-5.76 226.5-4.94 226.38-4.13 226.38-3.27L226.38-3.27Q226.38-2.34 226.49-1.48 226.6-0.61 226.75 0L226.75 0Q226.04-0.15 224.85-0.26 223.67-0.37 222.27-0.45 220.86-0.54 219.4-0.57 217.93-0.61 216.69-0.61L216.69-0.61Q215.44-0.61 213.96-0.57 212.49-0.54 211.08-0.45 209.68-0.37 208.48-0.26 207.29-0.15 206.6 0ZM232.48 0L232.48 0Q232.53-0.2 232.61-0.71 232.7-1.22 232.77-1.92 232.85-2.61 232.91-3.41 232.97-4.2 232.97-4.96L232.97-4.96Q232.97-6.98 232.81-8.52 232.65-10.06 232.48-10.62L232.48-10.62Q233.87-10.4 235.09-10.33 236.31-10.25 237.49-10.25L237.49-10.25Q239.63-10.25 241.29-10.62L241.29-10.62Q241.29-9.55 241.81-8.58 242.32-7.62 243.23-6.91 244.15-6.2 245.43-5.79 246.71-5.37 248.28-5.37L248.28-5.37Q249.33-5.37 250.4-5.48 251.47-5.59 252.34-5.96 253.21-6.32 253.74-7.01 254.28-7.69 254.28-8.84L254.28-8.84Q254.28-9.67 253.78-10.56 253.28-11.45 252.22-12.16 251.16-12.87 249.48-13.33 247.81-13.79 245.47-13.79L245.47-13.79Q243.47-13.79 241.5-13.68 239.54-13.57 237.24-12.99L237.24-12.99Q237.19-13.72 236.72-14.6 236.24-15.48 235.5-16.25 234.75-17.02 233.79-17.54 232.82-18.07 231.82-18.07L231.82-18.07 231.58-18.07Q231.87-18.19 232.09-18.63 232.31-19.07 232.44-19.7 232.58-20.34 232.65-21.11 232.72-21.88 232.72-22.68L232.72-22.68Q232.72-24.71 232.52-26.32 232.31-27.93 231.92-28.61L231.92-28.61 232.09-28.61Q232.8-28.61 233.65-28.98 234.51-29.35 235.37-29.94 236.24-30.54 237.07-31.29 237.9-32.03 238.55-32.81 239.19-33.59 239.61-34.34 240.02-35.08 240.07-35.64L240.07-35.64Q240.44-35.42 240.99-35.19 241.54-34.96 242.36-34.75 243.17-34.55 244.3-34.42 245.42-34.3 246.96-34.3L246.96-34.3Q247.86-34.3 248.87-34.4 249.89-34.5 250.84-34.68 251.79-34.86 252.62-35.11 253.45-35.35 253.96-35.64L253.96-35.64Q254.16-34.89 254.62-34.09 255.09-33.3 255.72-32.74L255.72-32.74Q256.36-33.28 256.65-33.96 256.94-34.64 257.07-35.16L257.07-35.16Q257.43-34.94 258.16-34.8 258.9-34.67 260.07-34.67L260.07-34.67Q261.85-34.67 263.39-35.16L263.39-35.16Q263.34-34.96 263.27-34.4 263.19-33.84 263.12-33.11 263.05-32.37 263-31.54 262.95-30.71 262.95-29.96L262.95-29.96Q262.95-27.83 263.11-26.23 263.27-24.63 263.39-24.05L263.39-24.05Q262.14-24.27 261.04-24.34 259.95-24.41 258.85-24.41L258.85-24.41Q256.7-24.41 255.06-24.05L255.06-24.05Q255.06-25.17 254.55-26.17 254.04-27.17 253.12-27.93 252.21-28.69 250.92-29.11 249.64-29.54 248.08-29.54L248.08-29.54Q247.01-29.54 245.94-29.38 244.88-29.22 244.02-28.82 243.15-28.42 242.61-27.76 242.07-27.1 242.07-26.07L242.07-26.07Q242.07-25.22 242.5-24.41 242.93-23.61 243.91-22.97 244.88-22.34 246.48-21.95 248.08-21.56 250.42-21.56L250.42-21.56Q251.4-21.56 252.55-21.57 253.7-21.58 254.82-21.64 255.94-21.7 256.94-21.83 257.94-21.95 258.68-22.17L258.68-22.17Q258.75-21.44 259.29-20.51 259.82-19.58 260.64-18.76 261.46-17.94 262.49-17.4 263.51-16.85 264.54-16.85L264.54-16.85 264.78-16.85Q264.49-16.72 264.27-16.28 264.05-15.84 263.91-15.21 263.78-14.58 263.71-13.81 263.63-13.04 263.63-12.23L263.63-12.23Q263.63-11.23 263.68-10.3 263.73-9.38 263.84-8.59 263.95-7.81 264.1-7.21 264.24-6.62 264.44-6.3L264.44-6.3 264.27-6.3Q263.56-6.3 262.7-5.96 261.85-5.62 260.97-5.04 260.09-4.47 259.26-3.75 258.43-3.03 257.77-2.27 257.11-1.51 256.71-0.79 256.31-0.07 256.28 0.49L256.28 0.49Q255.92 0.27 255.37 0.07 254.82-0.12 254-0.28 253.18-0.44 252.06-0.52 250.94-0.61 249.4-0.61L249.4-0.61Q248.5-0.61 247.56-0.55 246.62-0.49 245.75-0.35 244.88-0.22 244.14-0.01 243.39 0.2 242.88 0.49L242.88 0.49Q242.66-0.27 242.21-0.98 241.76-1.68 241.12-2.2L241.12-2.2Q240.46-1.71 240.18-1.11 239.9-0.51 239.78 0L239.78 0Q239.58-0.1 239.16-0.21 238.73-0.32 238.19-0.4 237.66-0.49 237.05-0.55 236.44-0.61 235.85-0.61L235.85-0.61Q234.9-0.61 233.99-0.44 233.09-0.27 232.48 0ZM278.16 0L278.16 0Q278.3-0.61 278.41-1.48 278.52-2.34 278.52-3.27L278.52-3.27Q278.52-4.13 278.4-4.94 278.28-5.76 278.16-6.35L278.16-6.35Q279.84-6.35 280.96-6.52 282.09-6.69 282.78-7.09 283.48-7.5 283.77-8.19 284.06-8.89 284.06-9.94L284.06-9.94Q284.06-11.99 283.95-13.45 283.84-14.92 283.64-15.87 283.43-16.82 283.11-17.32 282.8-17.82 282.38-17.94L282.38-17.94Q282.82-18.09 283.14-18.47 283.45-18.85 283.66-19.7 283.87-20.56 283.97-21.98 284.06-23.41 284.06-25.66L284.06-25.66Q284.06-27.03 283.95-27.78 283.84-28.54 283.72-29.05L283.72-29.05Q282.82-29.32 281.78-29.43 280.74-29.54 280.13-29.54L280.13-29.54Q277.96-29.54 276.95-28.44 275.93-27.34 275.93-25.05L275.93-25.05Q275.93-23.75 276.12-22.47 276.3-21.19 276.57-20.39L276.57-20.39Q275.54-20.73 274.54-20.86 273.54-21 272.42-21L272.42-21Q271.08-21 269.88-20.83 268.68-20.65 267.9-20.39L267.9-20.39Q267.98-20.75 268.09-21.53 268.2-22.31 268.28-23.38 268.37-24.44 268.44-25.7 268.51-26.95 268.51-28.25L268.51-28.25Q268.51-30.32 268.32-32.15 268.12-33.98 267.9-35.16L267.9-35.16Q268.32-35.03 269.18-34.92 270.05-34.81 271.17-34.72 272.3-34.62 273.57-34.55 274.84-34.47 276.07-34.41 277.3-34.35 278.38-34.33 279.45-34.3 280.18-34.3L280.18-34.3Q281.5-34.3 282.94-34.36 284.38-34.42 285.63-34.53 286.87-34.64 287.79-34.8 288.7-34.96 288.97-35.16L288.97-35.16Q289.24-34.96 290.16-34.8 291.07-34.64 292.32-34.53 293.56-34.42 294.99-34.36 296.42-34.3 297.74-34.3L297.74-34.3Q298.47-34.3 299.54-34.33 300.62-34.35 301.85-34.41 303.08-34.47 304.35-34.55 305.62-34.62 306.75-34.72 307.87-34.81 308.73-34.92 309.6-35.03 310.02-35.16L310.02-35.16Q309.92-34.59 309.81-33.83 309.7-33.06 309.61-32.15 309.53-31.25 309.47-30.26 309.41-29.27 309.41-28.25L309.41-28.25Q309.41-26.95 309.48-25.7 309.55-24.44 309.64-23.38 309.72-22.31 309.83-21.53 309.94-20.75 310.02-20.39L310.02-20.39Q309.24-20.65 308.04-20.83 306.84-21 305.5-21L305.5-21Q304.38-21 303.38-20.86 302.38-20.73 301.35-20.39L301.35-20.39Q301.62-21.19 301.8-22.47 301.98-23.75 301.98-25.05L301.98-25.05Q301.98-27.34 300.97-28.44 299.96-29.54 297.79-29.54L297.79-29.54Q297.17-29.54 296.14-29.43 295.1-29.32 294.2-29.05L294.2-29.05Q294.07-28.54 293.96-27.78 293.85-27.03 293.85-25.66L293.85-25.66Q293.85-23.41 293.95-21.98 294.05-20.56 294.26-19.7 294.46-18.85 294.78-18.47 295.1-18.09 295.54-17.94L295.54-17.94Q295.12-17.82 294.81-17.32 294.49-16.82 294.28-15.87 294.07-14.92 293.96-13.45 293.85-11.99 293.85-9.94L293.85-9.94Q293.85-8.89 294.14-8.19 294.42-7.5 295.12-7.09 295.83-6.69 297.02-6.52 298.2-6.35 300.01-6.35L300.01-6.35Q299.88-5.76 299.76-4.94 299.64-4.13 299.64-3.27L299.64-3.27Q299.64-2.34 299.74-1.48 299.84-0.61 300.01 0L300.01 0Q299.27-0.15 297.96-0.26 296.64-0.37 295.08-0.45 293.51-0.54 291.9-0.57 290.29-0.61 288.97-0.61L288.97-0.61Q287.65-0.61 286.08-0.57 284.5-0.54 282.98-0.45 281.45-0.37 280.17-0.26 278.89-0.15 278.16 0ZM312.09 0L312.09 0Q312.24-0.61 312.31-1.5 312.38-2.39 312.38-3.34L312.38-3.34Q312.38-4.22 312.32-4.99 312.26-5.76 312.14-6.35L312.14-6.35Q313.38-6.4 314.26-6.8 315.14-7.2 315.7-7.69L315.7-7.69Q316.29-8.59 316.9-9.72 317.51-10.84 318.01-12.02 318.51-13.21 318.83-14.39 319.15-15.58 319.15-16.6L319.15-16.6Q319.15-17.02 319.02-17.43 318.9-17.85 318.61-17.94L318.61-17.94Q319.34-18.14 320.07-19.02 320.81-19.9 321.49-21.19 322.17-22.49 322.76-24.07 323.34-25.66 323.78-27.28 324.22-28.91 324.47-30.44 324.71-31.98 324.71-33.18L324.71-33.18Q324.71-33.59 324.66-33.98 324.61-34.38 324.61-34.64L324.61-34.64Q324.61-34.77 324.63-34.86 324.64-34.96 324.64-35.16L324.64-35.16Q325.2-34.94 326.04-34.78 326.88-34.62 327.93-34.51 328.98-34.4 330.18-34.35 331.38-34.3 332.67-34.3L332.67-34.3Q333.79-34.3 334.97-34.35 336.14-34.4 337.24-34.51 338.33-34.62 339.29-34.78 340.24-34.94 340.87-35.16L340.87-35.16 340.87-35.06 340.87-34.84Q340.87-34.57 340.81-34.17 340.75-33.76 340.75-33.28L340.75-33.28Q340.75-32.15 340.96-30.64 341.17-29.13 341.53-27.5 341.9-25.88 342.42-24.28 342.95-22.68 343.58-21.35 344.22-20.02 344.95-19.1 345.68-18.19 346.49-17.94L346.49-17.94Q346.15-17.82 346.01-17.47 345.88-17.11 345.88-16.6L345.88-16.6Q345.88-15.58 346.18-14.39 346.49-13.21 346.99-12.02 347.49-10.84 348.09-9.74 348.69-8.64 349.27-7.76L349.27-7.76Q349.64-7.54 350.15-7.3 350.66-7.06 351.23-6.84 351.79-6.62 352.35-6.48 352.91-6.35 353.4-6.35L353.4-6.35Q353.28-5.76 353.21-4.99 353.15-4.22 353.15-3.34L353.15-3.34Q353.15-2.39 353.23-1.5 353.3-0.61 353.45 0L353.45 0Q352.57-0.1 351.42-0.21 350.27-0.32 348.95-0.4 347.64-0.49 346.22-0.55 344.8-0.61 343.39-0.61L343.39-0.61Q340.8-0.61 338.47-0.45 336.14-0.29 334.53 0L334.53 0Q334.6-0.42 334.66-1.31 334.72-2.2 334.72-3.3L334.72-3.3Q334.72-3.76 334.7-4.24 334.67-4.71 334.65-5.13 334.62-5.54 334.59-5.87 334.55-6.2 334.53-6.35L334.53-6.35Q334.97-6.35 335.45-6.38 335.94-6.42 336.42-6.52 336.89-6.62 337.33-6.79 337.77-6.96 338.11-7.25L338.11-7.25Q338.07-8.23 337.8-8.92 337.53-9.62 336.78-10.08 336.04-10.55 334.71-10.77 333.38-10.99 331.23-10.99L331.23-10.99Q329.3-10.99 328.02-10.84 326.74-10.69 325.94-10.29 325.15-9.89 324.77-9.17 324.39-8.45 324.3-7.28L324.3-7.28Q324.66-6.98 325.18-6.81 325.69-6.64 326.24-6.53 326.79-6.42 327.34-6.38 327.89-6.35 328.32-6.35L328.32-6.35Q328.28-6.2 328.24-5.88 328.2-5.57 328.18-5.14 328.15-4.71 328.14-4.22 328.13-3.74 328.13-3.3L328.13-3.3Q328.13-2.2 328.19-1.31 328.25-0.42 328.32 0L328.32 0Q326.47-0.34 324.56-0.48 322.66-0.61 320.68-0.61L320.68-0.61Q318.39-0.61 316.23-0.48 314.07-0.34 312.09 0ZM327.71-18.14L327.71-18.14Q327.71-17.43 327.87-16.97 328.03-16.5 328.43-16.24 328.84-15.97 329.53-15.86 330.23-15.75 331.3-15.75L331.3-15.75Q332.38-15.75 333.07-15.86 333.77-15.97 334.17-16.24 334.57-16.5 334.73-16.97 334.89-17.43 334.89-18.14L334.89-18.14Q334.89-18.99 334.45-20.24 334.01-21.48 333.43-22.85 332.84-24.22 332.23-25.59 331.62-26.95 331.3-28.05L331.3-28.05Q330.94-26.95 330.33-25.59 329.72-24.22 329.14-22.85 328.57-21.48 328.14-20.24 327.71-18.99 327.71-18.14Z" opacity="1" transform="matrix(1,0,0,1,0,0)" fill="#ffffff" class="wordmark-text-0" data-fill-palette-color="primary" id="text-0"></path></svg></g></svg></g></svg></g></svg></g><g transform="matrix(1,0,0,1,20.236089555227423,0)"><svg viewBox="0 0 183.52782088954515 47.177564174153424" height="47.177564174153424" width="183.52782088954515"><g><svg version="1.0" xmlns="http://www.w3.org/2000/svg" xmlns:xlink="http://www.w3.org/1999/xlink" x="0" y="0" viewBox="0.00007276326231394487 0 100.00061892680831 25.70610599530806" enable-background="new 0 0 100 25.705" xml:space="preserve" id="icon-0" width="183.52782088954515" height="47.177564174153424" class="icon-icon-0" data-fill-palette-color="accent"><path d="M30.719 18.446A3.629 3.629 0 1 0 30.719 25.705 3.63 3.63 0 1 0 30.719 18.446M30.719 24.626A2.55 2.55 0 1 1 30.72 19.525 2.55 2.55 0 0 1 30.72 24.626" fill="#ffffff" data-fill-palette-color="accent"></path><path d="M69.28 18.446A3.63 3.63 0 1 0 72.91 22.075 3.63 3.63 0 0 0 69.28 18.446M69.28 24.626A2.551 2.551 0 1 1 69.278 19.524 2.551 2.551 0 0 1 69.28 24.626" fill="#ffffff" data-fill-palette-color="accent"></path><path d="M99.505 6.445C98.068 8.037 96.099 9.087 94.18 9.977 91.173 11.373 87.971 12.357 84.781 13.233 75.033 15.91 66.045 16.951 56.052 18.291 56.073 18.084 56.083 17.873 56.083 17.662 56.083 16.852 55.925 16.079 55.638 15.375L64.714 14.129S65.194 14.035 65.18 13.907 64.675 13.799 64.675 13.799L55.311 14.692A6.08 6.08 0 0 0 50.6 11.608L50.28 1.046S50.27 0 50 0C49.728 0 49.718 1.046 49.718 1.046L49.403 11.607A6.09 6.09 0 0 0 44.691 14.691L35.325 13.798S34.837 13.778 34.822 13.906 35.287 14.128 35.287 14.128L44.364 15.374A6.05 6.05 0 0 0 43.951 18.29C33.958 16.95 24.968 15.909 15.222 13.232 12.03 12.356 8.83 11.373 5.82 9.976 3.899 9.087 1.93 8.037 0.495 6.445 0.24 6.162-0.174 6.579 0.079 6.86 0.123 6.911 0.168 6.961 0.215 7.01 1.712 8.586 3.711 9.666 5.674 10.552 8.693 11.92 11.869 12.93 15.063 13.8 24.932 16.485 34.716 19.522 44.838 20.881 44.839 20.881 44.839 20.879 44.841 20.879A6.07 6.07 0 0 0 50.001 23.743 6.08 6.08 0 0 0 55.162 20.879V20.881C65.285 19.522 75.07 16.485 84.936 13.8 88.13 12.931 91.307 11.92 94.328 10.552 96.289 9.666 98.287 8.586 99.785 7.01 99.831 6.961 99.877 6.911 99.922 6.86 100.175 6.579 99.759 6.162 99.505 6.445M53.616 16.5C53.518 16.775 52.499 16.914 52.294 16.938L52.27 16.94 52.255 16.943 50.389 16.995H49.61L47.745 16.943 47.729 16.94 47.707 16.938C47.501 16.914 46.479 16.775 46.383 16.5A0.2 0.2 0 0 1 46.386 16.372L46.381 16.374 46.391 16.347C46.395 16.339 46.397 16.33 46.403 16.321 46.474 16.147 46.713 15.599 46.9 15.493 47.071 15.394 47.685 15.493 47.685 15.493L49.61 15.671H50.388L52.314 15.493S52.928 15.394 53.098 15.493C53.285 15.599 53.523 16.147 53.595 16.321L53.619 16.374 53.614 16.372A0.2 0.2 0 0 1 53.616 16.5" fill="#ffffff" data-fill-palette-color="accent"></path></svg></g></svg></g><g></g></svg></g></svg></g></svg></g><defs></defs></svg><rect width="320" height="360" fill="none" stroke="none" visibility="hidden"></rect></g></svg></g></svg>